<svg width="929" height="170" viewBox="0 0 929 170" fill="none" xmlns="http://www.w3.org/2000/svg">
<g clip-path="url(#clip0_375_2863)">
<g clip-path="url(#clip1_375_2863)">
<rect width="929" height="170" fill="#F5F5F5" fill-opacity="0.2"/>
<line x1="95" y1="59.5" x2="115" y2="59.5" stroke="#B8B8BD"/>
<line x1="233" y1="59.5" x2="253" y2="59.5" stroke="#B8B8BD"/>
<line x1="371" y1="59.5" x2="391" y2="59.5" stroke="#B8B8BD"/>
<line x1="787" y1="59.5" x2="807" y2="59.5" stroke="#B8B8BD"/>
<line x1="509" y1="59.5" x2="529" y2="59.5" stroke="#B8B8BD"/>
<line x1="647" y1="49.5" x2="667" y2="49.5" stroke="#B8B8BD"/>
<line x1="121" y1="59.5" x2="141" y2="59.5" stroke="#B8B8BD"/>
<line x1="259" y1="59.5" x2="279" y2="59.5" stroke="#B8B8BD"/>
<line x1="397" y1="59.5" x2="417" y2="59.5" stroke="#B8B8BD"/>
<line x1="813" y1="59.5" x2="833" y2="59.5" stroke="#B8B8BD"/>
<line x1="535" y1="59.5" x2="555" y2="59.5" stroke="#B8B8BD"/>
<line x1="673" y1="49.5" x2="693" y2="49.5" stroke="#B8B8BD"/>
<circle cx="89" cy="59" r="6" fill="#B8B8BD"/>
<circle cx="227" cy="59" r="6" fill="#B8B8BD"/>
<circle cx="365" cy="59" r="6" fill="#B8B8BD"/>
<circle cx="503" cy="59" r="6" fill="#B8B8BD"/>
<circle cx="641" cy="49" r="6" fill="#B8B8BD"/>
<circle cx="641" cy="69" r="6" fill="#B8B8BD"/>
<circle cx="779" cy="59" r="6" fill="#B8B8BD"/>
<rect x="282" y="48" width="6" height="24" rx="3" fill="#B8B8BD"/>
<rect x="144" y="48" width="6" height="24" rx="3" fill="#B8B8BD"/>
<rect x="420" y="48" width="6" height="24" rx="3" fill="#B8B8BD"/>
<rect x="558" y="48" width="6" height="24" rx="3" fill="#B8B8BD"/>
<rect x="696" y="38" width="6" height="24" rx="3" fill="#B8B8BD"/>
<rect x="836" y="48" width="6" height="24" rx="3" fill="#B8B8BD"/>
<path d="M9 52C9 34.3269 23.3269 20 41 20H69C80.0457 20 89 28.9543 89 40V80C89 91.0457 80.0457 100 69 100H41C23.3269 100 9 85.6731 9 68V52Z" stroke="#B8B8BD"/>
<path d="M50.8594 80.0996H47.0469V81.9996H50.8594V80.0996Z" fill="#7C7C83"/>
<path d="M47.0469 78.1875H43.2344V80.1H47.0469V78.1875Z" fill="#7C7C83"/>
<path d="M45.1469 74.3877H43.2344V76.2877H45.1469V74.3877Z" fill="#7C7C83"/>
<path d="M33.7266 76.2871V78.1871H37.5266V81.9996H39.4391V78.1871H43.2391V76.2871H33.7266Z" fill="#7C7C83"/>
<path d="M43.2359 70.5752H41.3359V72.4752H43.2359V70.5752Z" fill="#7C7C83"/>
<path d="M43.2359 66.7627H41.3359V68.6752H43.2359V66.7627Z" fill="#7C7C83"/>
<path d="M41.3359 72.4746H37.5234V74.3871H41.3359V72.4746Z" fill="#7C7C83"/>
<path d="M35.6266 66.7627H33.7266V68.6752H35.6266V66.7627Z" fill="#7C7C83"/>
<path d="M33.725 74.3877H31.8125V76.2877H33.725V74.3877Z" fill="#7C7C83"/>
<path d="M33.7266 78.1875H29.9141V80.1H33.7266V78.1875Z" fill="#7C7C83"/>
<path d="M31.8141 64.8623H33.7266V62.9498H43.2391V64.8623H45.1516V74.3873H47.0516V61.0498H45.1516V59.1498H43.2391V57.2373H33.7266V59.1498H31.8141V61.0498H29.9141V74.3873H31.8141V64.8623Z" fill="#7C7C83"/>
<g clip-path="url(#clip2_375_2863)">
<path d="M67.9497 43.0996H66.4297V55.2896H67.9497V43.0996Z" fill="#7C7C83"/>
<path d="M66.4284 55.29H64.8984V56.81H66.4284V55.29Z" fill="#7C7C83"/>
<path d="M66.4284 41.5703H64.8984V43.1003H66.4284V41.5703Z" fill="#7C7C83"/>
<path d="M64.895 56.8096H63.375V58.3296H64.895V56.8096Z" fill="#7C7C83"/>
<path d="M64.895 40.0498H63.375V41.5698H64.895V40.0498Z" fill="#7C7C83"/>
<path d="M63.3737 58.3301H61.8438V59.8601H63.3737V58.3301Z" fill="#7C7C83"/>
<path d="M63.3737 38.5195H61.8438V40.0495H63.3737V38.5195Z" fill="#7C7C83"/>
<path d="M57.2806 59.8598V53.7598H55.7606V59.8598H54.2406V53.7598H52.7106V59.8598H48.1406V61.3798H49.6606V67.4798H51.1906V65.9498H58.8106V67.4798H60.3306V61.3798H61.8506V59.8598H57.2806ZM58.8106 62.8998H51.1906V61.3798H58.8106V62.8998Z" fill="#7C7C83"/>
<path d="M60.3247 47.6699H58.8047V50.7099H60.3247V47.6699Z" fill="#7C7C83"/>
<path d="M58.8112 50.71H57.2812V53.76H58.8112V50.71Z" fill="#7C7C83"/>
<path d="M58.8075 67.4805H51.1875V69.0005H58.8075V67.4805Z" fill="#7C7C83"/>
<path d="M52.7075 50.71H51.1875V53.76H52.7075V50.71Z" fill="#7C7C83"/>
<path d="M51.1862 47.6699H49.6562V50.7099H51.1862V47.6699Z" fill="#7C7C83"/>
<path d="M61.8506 37H48.1406V38.52H61.8506V37Z" fill="#7C7C83"/>
<path d="M48.1372 58.3301H46.6172V59.8601H48.1372V58.3301Z" fill="#7C7C83"/>
<path d="M48.1372 38.5195H46.6172V40.0495H48.1372V38.5195Z" fill="#7C7C83"/>
<path d="M46.6159 56.8096H45.0859V58.3296H46.6159V56.8096Z" fill="#7C7C83"/>
<path d="M46.6159 40.0498H45.0859V41.5698H46.6159V40.0498Z" fill="#7C7C83"/>
<path d="M45.0825 55.29H43.5625V56.81H45.0825V55.29Z" fill="#7C7C83"/>
<path d="M45.0825 41.5703H43.5625V43.1003H45.0825V41.5703Z" fill="#7C7C83"/>
<path d="M43.5669 43.0996H42.0469V55.2896H43.5669V43.0996Z" fill="#7C7C83"/>
</g>
<path d="M29.9125 80.0996H28V81.9996H29.9125V80.0996Z" fill="#7C7C83"/>
<text fill="#7C7C83" style="white-space: pre" xml:space="preserve" font-family="Noto Sans SC" font-size="10" letter-spacing="-0.15px"><tspan x="18.3318" y="126"> &#x4ea7;&#x54c1;&#x63d0;&#x51fa;&#x9700;&#x6c42;</tspan></text>
<path d="M285 40C285 28.9543 293.954 20 305 20H345C356.046 20 365 28.9543 365 40V80C365 91.0457 356.046 100 345 100H305C293.954 100 285 91.0457 285 80V40Z" stroke="#B8B8BD"/>
<g clip-path="url(#clip3_375_2863)">
<path d="M336.286 65.8574H334.134V70.1465H329.859V72.284H325.57V74.4215H331.997V76.573H334.134V78.7105H336.286V80.8621H338.423V82.9996H340.575V80.8621H342.713V78.7105H344.85V76.573H347.002V74.4215H344.85V72.284H342.713V70.1465H340.575V67.9949H338.423V61.5684H336.286V65.8574Z" fill="#7C7C83"/>
<g clip-path="url(#clip4_375_2863)">
<path d="M329.998 47.9977H329.001V47.0002H328.003V45.9961H312.999V53.0023H311V54.9998H316.001V53.0023H315.003V48.0002H326.002V50.9967H329.998V60.998H328V62.9995H329.998V65.9986H332.003V49.0017H329.998V47.9977Z" fill="#7C7C83"/>
<path d="M330 65H315V67H330V65Z" fill="#7C7C83"/>
<path d="M329 59H327V61H329V59Z" fill="#7C7C83"/>
<path d="M328 57H326V59H328V57Z" fill="#7C7C83"/>
<path d="M327 56H317V58H327V56Z" fill="#7C7C83"/>
<path d="M318 54H316V56H318V54Z" fill="#7C7C83"/>
<path d="M316 64H314V66H316V64Z" fill="#7C7C83"/>
<path d="M315 62H313V64H315V62Z" fill="#7C7C83"/>
<path d="M314 60H312V62H314V60Z" fill="#7C7C83"/>
<path d="M313 58H311V60H313V58Z" fill="#7C7C83"/>
<path d="M311.997 55H310V57.9991H311.997V55Z" fill="#7C7C83"/>
</g>
<path d="M340.573 53.0049H338.422V61.5689H340.573V53.0049Z" fill="#7C7C83"/>
<path d="M338.419 48.7158H336.281V53.0049H338.419V48.7158Z" fill="#7C7C83"/>
<path d="M336.284 44.4268H334.133V48.7158H336.284V44.4268Z" fill="#7C7C83"/>
<path d="M334.134 42.2891H329.859V44.4266H334.134V42.2891Z" fill="#7C7C83"/>
<path d="M329.859 40.1377H325.57V42.2893H329.859V40.1377Z" fill="#7C7C83"/>
<path d="M325.57 74.4219H316.992V76.5734H325.57V74.4219Z" fill="#7C7C83"/>
<path d="M325.57 38H316.992V40.1375H325.57V38Z" fill="#7C7C83"/>
<path d="M316.994 72.2842H312.719V74.4217H316.994V72.2842Z" fill="#7C7C83"/>
<path d="M316.994 40.1377H312.719V42.2893H316.994V40.1377Z" fill="#7C7C83"/>
<path d="M312.711 70.1465H308.422V72.284H312.711V70.1465Z" fill="#7C7C83"/>
<path d="M312.711 42.2891H308.422V44.4266H312.711V42.2891Z" fill="#7C7C83"/>
<path d="M308.427 65.8574H306.289V70.1465H308.427V65.8574Z" fill="#7C7C83"/>
<path d="M308.427 44.4268H306.289V48.7158H308.427V44.4268Z" fill="#7C7C83"/>
<path d="M306.292 61.5684H304.141V65.8574H306.292V61.5684Z" fill="#7C7C83"/>
<path d="M306.292 48.7158H304.141V53.0049H306.292V48.7158Z" fill="#7C7C83"/>
<path d="M304.137 53.0049H302V61.5689H304.137V53.0049Z" fill="#7C7C83"/>
</g>
<text fill="#7C7C83" style="white-space: pre" xml:space="preserve" font-family="Noto Sans SC" font-size="10" letter-spacing="-0.15px"><tspan x="285.525" y="126">&#x627e;&#x5386;&#x53f2;&#x9875;&#x9762;&#x548c;&#x7ec4;&#x4ef6;</tspan></text>
<path d="M423 40C423 28.9543 431.954 20 443 20H483C494.046 20 503 28.9543 503 40V80C503 91.0457 494.046 100 483 100H443C431.954 100 423 91.0457 423 80V40Z" stroke="#B8B8BD"/>
<g clip-path="url(#clip5_375_2863)">
<g clip-path="url(#clip6_375_2863)">
<path d="M485 42.2891H480.711V44.4266H485V42.2891Z" fill="#7C7C83"/>
<path d="M485 76.5732H480.711V78.7107H485V76.5732Z" fill="#7C7C83"/>
<path d="M480.716 38H478.578V42.2891H480.716V38Z" fill="#7C7C83"/>
<path d="M480.716 78.7109H478.578V83H480.716V78.7109Z" fill="#7C7C83"/>
<path d="M478.569 44.4268H446.422V76.5736H478.569V44.4268ZM476.431 74.4361H448.573V46.5783H476.431V74.4361Z" fill="#7C7C83"/>
<path d="M459.297 72.284H474.287V57.2793H459.297V72.284ZM461.434 59.4309H472.15V70.1465H461.434V59.4309Z" fill="#7C7C83"/>
<path d="M452.87 63.7205H455.008V65.858H457.145V55.1424H467.861V53.0049H465.723V50.8533H463.572V48.7158H455.008V50.8533H452.87V53.0049H450.719V61.5689H452.87V63.7205Z" fill="#7C7C83"/>
<path d="M446.427 38H444.289V42.2891H446.427V38Z" fill="#7C7C83"/>
<path d="M446.427 78.7109H444.289V83H446.427V78.7109Z" fill="#7C7C83"/>
<path d="M444.289 42.2891H440V44.4266H444.289V42.2891Z" fill="#7C7C83"/>
<path d="M444.289 76.5732H440V78.7107H444.289V76.5732Z" fill="#7C7C83"/>
</g>
</g>
<text fill="#7C7C83" style="white-space: pre" xml:space="preserve" font-family="Noto Sans SC" font-size="10" letter-spacing="-0.15px"><tspan x="428.45" y="126">&#x91cd;&#x65b0;&#x8bbe;&#x8ba1;&#x6216;&#x4fee;&#x6539;</tspan></text>
<path d="M561 40C561 28.9543 569.954 20 581 20H621C632.046 20 641 28.9543 641 40V80C641 91.0457 632.046 100 621 100H581C569.954 100 561 91.0457 561 80V40Z" stroke="#B8B8BD"/>
<g clip-path="url(#clip7_375_2863)">
<g clip-path="url(#clip8_375_2863)">
<path d="M601.57 65.8582H603.708V67.9957H607.997V70.1473H610.134V72.2848H607.997V74.4223H603.708V76.5738H601.57V78.7113H603.708V80.8629H607.997V83.0004H614.423V80.8629H618.713V78.7113H620.85V74.4223H623.002V67.9957H620.85V63.7207H618.713V61.5691H614.423V59.4316H607.997V61.5691H603.708V63.7207H601.57V65.8582ZM612.286 65.8582H614.423V67.9957H612.286V65.8582Z" fill="#7C7C83"/>
<path d="M620.856 46.5645H618.719V48.716H620.856V46.5645Z" fill="#7C7C83"/>
<path d="M614.427 53.0049H612.289V55.1424H614.427V53.0049Z" fill="#7C7C83"/>
<path d="M614.427 46.5645H612.289V48.716H614.427V46.5645Z" fill="#7C7C83"/>
<path d="M614.427 40.1377H612.289V42.2893H614.427V40.1377Z" fill="#7C7C83"/>
<path d="M607.995 46.5645H605.844V48.716H607.995V46.5645Z" fill="#7C7C83"/>
<path d="M601.573 70.1465H599.422V72.284H601.573V70.1465Z" fill="#7C7C83"/>
<path d="M601.573 46.5645H599.422V57.2801H601.573V46.5645Z" fill="#7C7C83"/>
<path d="M599.419 57.2793H597.281V59.4309H599.419V57.2793Z" fill="#7C7C83"/>
<path d="M599.419 42.2891H597.281V46.5641H599.419V42.2891Z" fill="#7C7C83"/>
<path d="M597.278 55.1426H595.141V57.2801H597.278V55.1426Z" fill="#7C7C83"/>
<path d="M597.278 40.1377H595.141V42.2893H597.278V40.1377Z" fill="#7C7C83"/>
<path d="M595.144 70.1465H592.992V72.284H595.144V70.1465Z" fill="#7C7C83"/>
<path d="M595.144 57.2793H592.992V59.4309H595.144V57.2793Z" fill="#7C7C83"/>
<path d="M595.144 46.5645H592.992V48.716H595.144V46.5645Z" fill="#7C7C83"/>
<path d="M592.997 55.1426H590.859V57.2801H592.997V55.1426Z" fill="#7C7C83"/>
<path d="M590.855 57.2793H588.703V59.4309H590.855V57.2793Z" fill="#7C7C83"/>
<path d="M590.855 46.5645H588.703V48.716H590.855V46.5645Z" fill="#7C7C83"/>
<path d="M588.7 76.5732H586.562V78.7107H588.7V76.5732Z" fill="#7C7C83"/>
<path d="M588.7 70.1465H586.562V72.284H588.7V70.1465Z" fill="#7C7C83"/>
<path d="M588.7 63.7207H586.562V65.8582H588.7V63.7207Z" fill="#7C7C83"/>
<path d="M588.7 55.1426H586.562V57.2801H588.7V55.1426Z" fill="#7C7C83"/>
<path d="M595.145 38H584.43V40.1375H595.145V38Z" fill="#7C7C83"/>
<path d="M586.567 57.2793H584.43V59.4309H586.567V57.2793Z" fill="#7C7C83"/>
<path d="M584.433 55.1426H582.281V57.2801H584.433V55.1426Z" fill="#7C7C83"/>
<path d="M584.433 40.1377H582.281V42.2893H584.433V40.1377Z" fill="#7C7C83"/>
<path d="M582.278 70.1465H580.141V72.284H582.278V70.1465Z" fill="#7C7C83"/>
<path d="M582.278 57.2793H580.141V59.4309H582.278V57.2793Z" fill="#7C7C83"/>
<path d="M582.278 42.2891H580.141V46.5641H582.278V42.2891Z" fill="#7C7C83"/>
<path d="M580.138 46.5645H578V57.2801H580.138V46.5645Z" fill="#7C7C83"/>
</g>
</g>
<text fill="#7C7C83" style="white-space: pre" xml:space="preserve" font-family="Noto Sans SC" font-size="10" letter-spacing="-0.15px"><tspan x="566.45" y="126">&#x53cd;&#x590d;&#x8bc4;&#x5ba1;&#x4e0e;&#x5bf9;&#x9f50;</tspan></text>
<path d="M699 40C699 28.9543 707.954 20 719 20H759C770.046 20 779 28.9543 779 40V80C779 91.0457 770.046 100 759 100H719C707.954 100 699 91.0457 699 80V40Z" stroke="#B8B8BD"/>
<g clip-path="url(#clip9_375_2863)">
<g clip-path="url(#clip10_375_2863)">
<path d="M756.1 40H744.663V41.9125H742.762V53.3375H719.9V55.2375H742.762V60.9625H744.663V68.575H719.9V55.2375H718V72.3875H719.9V70.4875H744.663V72.3875H746.575V62.8625H756.1V60.9625H758V41.9125H756.1V40ZM748.475 41.9125H752.287V43.8125H748.475V41.9125ZM756.1 59.05H744.663V43.8125H746.575V45.725H754.188V43.8125H756.1V59.05Z" fill="#7C7C83"/>
<path d="M754.9 51H753V52.9H754.9V51Z" fill="#7C7C83"/>
<path d="M754.9 48H753V49.9H754.9V48Z" fill="#7C7C83"/>
<path d="M752.289 53.3379H748.477V55.2379H752.289V53.3379Z" fill="#7C7C83"/>
<path d="M748.478 47.625H746.578V49.525H748.478V47.625Z" fill="#7C7C83"/>
<path d="M719.898 72.3877V74.2877H727.523V76.2002H729.423V74.2877H735.136V76.2002H737.048V74.2877H744.661V72.3877H719.898Z" fill="#7C7C83"/>
<path d="M742.759 60.9629H740.859V62.8629H742.759V60.9629Z" fill="#7C7C83"/>
<path d="M740.866 62.8623H738.953V64.7623H740.866V62.8623Z" fill="#7C7C83"/>
<path d="M740.866 59.0498H738.953V60.9623H740.866V59.0498Z" fill="#7C7C83"/>
<path d="M738.947 64.7627H737.047V66.6752H738.947V64.7627Z" fill="#7C7C83"/>
<path d="M738.947 57.1504H737.047V59.0504H738.947V57.1504Z" fill="#7C7C83"/>
<path d="M727.525 78.1002V76.2002H725.625V80.0002H738.95V76.2002H737.05V78.1002H727.525Z" fill="#7C7C83"/>
<path d="M735.134 57.1504H733.234V60.9629H735.134V57.1504Z" fill="#7C7C83"/>
<path d="M733.236 60.9629H731.336V62.8629H733.236V60.9629Z" fill="#7C7C83"/>
<path d="M731.334 62.8623H729.422V66.6748H731.334V62.8623Z" fill="#7C7C83"/>
<path d="M727.525 64.7627H725.625V66.6752H727.525V64.7627Z" fill="#7C7C83"/>
<path d="M727.525 57.1504H725.625V59.0504H727.525V57.1504Z" fill="#7C7C83"/>
<path d="M725.623 62.8623H723.711V64.7623H725.623V62.8623Z" fill="#7C7C83"/>
<path d="M725.623 59.0498H723.711V60.9623H725.623V59.0498Z" fill="#7C7C83"/>
<path d="M723.713 60.9629H721.812V62.8629H723.713V60.9629Z" fill="#7C7C83"/>
</g>
</g>
<text fill="#7C7C83" style="white-space: pre" xml:space="preserve" font-family="Noto Sans SC" font-size="10" letter-spacing="-0.15px"><tspan x="704.45" y="126">&#x524d;&#x7aef;&#x89e3;&#x8bfb;&#x8bbe;&#x8ba1;&#x7a3f;</tspan></text>
<path d="M118 60V144C118 147.314 120.686 150 124 150H664C667.314 150 670 147.314 670 144V75.8901C670 72.5764 667.314 69.8901 664 69.8901H641" stroke="#B8B8BD" stroke-dasharray="20 20"/>
<path d="M147 40C147 28.9543 155.954 20 167 20H207C218.046 20 227 28.9543 227 40V80C227 91.0457 218.046 100 207 100H167C155.954 100 147 91.0457 147 80V40Z" stroke="#B8B8BD"/>
<path d="M200.359 57.3477V63.7883H206.786V57.3477H200.359ZM204.648 61.6367H202.497V59.4992H204.655L204.648 61.6367Z" fill="#7C7C83"/>
<path d="M202.498 70.2148H196.078V76.6414H202.505L202.498 70.2148ZM200.36 74.4898H198.223V72.3523H200.36V74.4898Z" fill="#7C7C83"/>
<path d="M204.653 53.073V42.3574H193.938V53.073H204.653ZM196.075 44.4949H202.502V50.9215H196.075V44.4949Z" fill="#7C7C83"/>
<path d="M191.78 38.0684H181.078V48.784H191.78V38.0684ZM189.642 46.6324H183.216V40.2059H189.642V46.6324Z" fill="#7C7C83"/>
<path d="M189.645 74.4902H183.219V80.9309H189.645V74.4902Z" fill="#7C7C83"/>
<path d="M176.786 70.2148H170.359V76.6414H176.786V70.2148Z" fill="#7C7C83"/>
<path d="M174.638 46.6328H172.5V48.7844H174.638V46.6328Z" fill="#7C7C83"/>
<path d="M170.362 59.5H168.211V61.6375H170.362V59.5Z" fill="#7C7C83"/>
<text fill="#7C7C83" style="white-space: pre" xml:space="preserve" font-family="Noto Sans SC" font-size="10" letter-spacing="-0.15px"><tspan x="156.049" y="126">UX&#x7406;&#x89e3;&#x5e76;&#x8865;&#x5168;</tspan></text>
<path d="M839 40C839 28.9543 847.954 20 859 20H899C910.046 20 919 28.9543 919 40V80C919 91.0457 910.046 100 899 100H859C847.954 100 839 91.0457 839 80V40Z" stroke="#B8B8BD"/>
<g clip-path="url(#clip11_375_2863)">
<path d="M872.336 62.8496V72.3746H878.048V79.9996H879.948V72.3746H891.386V79.9996H893.286V72.3746H898.998V62.8496H872.336ZM879.948 68.5746H878.048V70.4746H874.236V68.5746H876.148V66.6621H878.048V64.7621H881.861V66.6621H879.948V68.5746ZM887.573 68.5746H885.661V70.4746H881.861V68.5746H883.761V66.6621H885.661V64.7621H889.473V66.6621H887.573V68.5746ZM897.098 66.6621H895.186V68.5746H893.286V70.4746H889.473V68.5746H891.386V66.6621H893.286V64.7621H897.098V66.6621Z" fill="#7C7C83"/>
<path d="M887.577 55.2373H885.664V57.1373H887.577V55.2373Z" fill="#7C7C83"/>
<path d="M887.577 51.4248H885.664V53.3373H887.577V51.4248Z" fill="#7C7C83"/>
<path d="M885.666 53.3379H883.766V55.2379H885.666V53.3379Z" fill="#7C7C83"/>
<path d="M883.759 55.2373H881.859V57.1373H883.759V55.2373Z" fill="#7C7C83"/>
<path d="M883.759 51.4248H881.859V53.3373H883.759V51.4248Z" fill="#7C7C83"/>
<path d="M881.866 59.0498H879.953V60.9498H881.866V59.0498Z" fill="#7C7C83"/>
<path d="M879.947 57.1377H874.234V59.0502H879.947V57.1377Z" fill="#7C7C83"/>
<path d="M874.236 59.0498H872.336V60.9498H874.236V59.0498Z" fill="#7C7C83"/>
<path d="M872.334 55.2373H870.422V57.1373H872.334V55.2373Z" fill="#7C7C83"/>
<path d="M872.334 51.4248H870.422V53.3373H872.334V51.4248Z" fill="#7C7C83"/>
<path d="M872.334 43.8125H870.422V45.7125H872.334V43.8125Z" fill="#7C7C83"/>
<path d="M862.812 74.2871V70.4746H860.9V74.2871H859V79.9996H872.337V74.2871H870.425V70.4746H868.525V74.2871H862.812ZM870.425 76.1871V78.0996H860.9V76.1871H870.425Z" fill="#7C7C83"/>
<path d="M870.423 53.3379H868.523V55.2379H870.423V53.3379Z" fill="#7C7C83"/>
<path d="M868.525 55.2373H866.625V57.1373H868.525V55.2373Z" fill="#7C7C83"/>
<path d="M868.525 51.4248H866.625V53.3373H868.525V51.4248Z" fill="#7C7C83"/>
<path d="M868.525 43.8125H866.625V45.7125H868.525V43.8125Z" fill="#7C7C83"/>
<path d="M864.713 68.5746V66.6621H862.812V70.4746H868.525V66.6621H866.625V68.5746H864.713Z" fill="#7C7C83"/>
<path d="M866.623 64.7627H864.711V66.6627H866.623V64.7627Z" fill="#7C7C83"/>
<path d="M864.713 43.8125H862.812V45.7125H864.713V43.8125Z" fill="#7C7C83"/>
<path d="M893.286 40H860.898V41.9H893.286V40Z" fill="#7C7C83"/>
<path d="M895.188 55.2379V41.9004H893.287V47.6129H860.9V41.9004H859V68.5754H860.9V49.5254H893.287V55.2379H895.188Z" fill="#7C7C83"/>
</g>
<text fill="#7C7C83" style="white-space: pre" xml:space="preserve" font-family="Noto Sans SC" font-size="10" letter-spacing="-0.15px"><tspan x="844.45" y="126">&#x8054;&#x8c03;&#x548c;&#x8d70;&#x67e5;&#x7ea0;&#x504f;</tspan></text>
</g>
</g>
<defs>
<clipPath id="clip0_375_2863">
<rect width="929" height="170" fill="white"/>
</clipPath>
<clipPath id="clip1_375_2863">
<rect width="929" height="170" fill="white"/>
</clipPath>
<clipPath id="clip2_375_2863">
<rect width="32" height="32" fill="white" transform="translate(39 37)"/>
</clipPath>
<clipPath id="clip3_375_2863">
<rect width="45" height="45" fill="white" transform="translate(302 38)"/>
</clipPath>
<clipPath id="clip4_375_2863">
<rect width="22" height="21" fill="white" transform="translate(310 46)"/>
</clipPath>
<clipPath id="clip5_375_2863">
<rect width="45" height="45" fill="white" transform="translate(440 38)"/>
</clipPath>
<clipPath id="clip6_375_2863">
<rect width="45" height="45" fill="white" transform="translate(440 38)"/>
</clipPath>
<clipPath id="clip7_375_2863">
<rect width="45" height="45" fill="white" transform="translate(578 38)"/>
</clipPath>
<clipPath id="clip8_375_2863">
<rect width="45" height="45" fill="white" transform="translate(578 38)"/>
</clipPath>
<clipPath id="clip9_375_2863">
<rect width="40" height="40" fill="white" transform="translate(718 40)"/>
</clipPath>
<clipPath id="clip10_375_2863">
<rect width="40" height="40" fill="white" transform="translate(718 40)"/>
</clipPath>
<clipPath id="clip11_375_2863">
<rect width="40" height="40" fill="white" transform="translate(859 40)"/>
</clipPath>
</defs>
</svg>
